<svg width="31" height="31" viewBox="0 0 31 31" fill="none" xmlns="http://www.w3.org/2000/svg">
<circle cx="15.5938" cy="15.6348" r="15" fill="#28170C"/>
<path d="M5.8024 6.40952H24.9164V24.86H5.8024V6.40952ZM4.93359 25.7222H25.7852V5.54736H4.93359V25.7222ZM18.5914 12.7379C18.5914 12.6689 18.6174 12.6344 18.6957 12.6344H20.0597C20.1292 12.6344 20.1639 12.6603 20.1639 12.7379V19.5405C20.1639 19.6094 20.1466 19.6439 20.0597 19.6439H18.713C18.6262 19.6439 18.6001 19.6008 18.6001 19.5318V12.7379H18.5914ZM18.4958 10.7807C18.4958 10.229 18.8868 9.90134 19.382 9.90134C19.912 9.90134 20.2682 10.2548 20.2682 10.7807C20.2682 11.3498 19.8946 11.6601 19.3647 11.6601C18.8607 11.6602 18.4958 11.3498 18.4958 10.7807ZM14.5862 15.5744C14.3429 14.6174 13.7695 12.531 13.5523 11.5222H13.5349C13.3524 12.531 12.892 14.238 12.5271 15.5744H14.5862ZM12.1708 16.9712L11.4845 19.5577C11.4671 19.6266 11.441 19.6439 11.3542 19.6439H10.077C9.99013 19.6439 9.97272 19.618 9.99013 19.5146L12.4576 10.9445C12.501 10.7894 12.5271 10.6514 12.5444 10.229C12.5444 10.1686 12.5705 10.1428 12.6139 10.1428H14.4384C14.4992 10.1428 14.5253 10.16 14.5427 10.229L17.3055 19.5318C17.3229 19.6007 17.3055 19.6439 17.236 19.6439H15.7938C15.7243 19.6439 15.6808 19.6266 15.6635 19.5663L14.951 16.9712H12.1708Z" fill="#FF7F18"/>
<rect x="5.35547" y="4.96729" width="20.6639" height="2.9635" fill="#28170C"/>
<rect x="5.35547" y="21.8213" width="20.3828" height="4.34228" fill="#28170C"/>
<rect x="21.4863" y="6.82373" width="4.88131" height="18.9586" fill="#28170C"/>
<rect x="4.7168" y="5.54736" width="4.53243" height="20.235" fill="#28170C"/>
</svg>
