<svg width="38" height="38" viewBox="0 0 38 38" fill="none" xmlns="http://www.w3.org/2000/svg">
<path fill-rule="evenodd" clip-rule="evenodd" d="M0.770683 37.4012C-0.0241033 36.6027 -0.0241033 35.3082 0.770683 34.5097L34.5257 0.598841C35.3205 -0.199613 36.6091 -0.199614 37.4039 0.598841C38.1987 1.3973 38.1987 2.69185 37.4039 3.4903L3.64886 37.4012C2.85407 38.1996 1.56547 38.1996 0.770683 37.4012Z" fill="#4D94C7"/>
<path fill-rule="evenodd" clip-rule="evenodd" d="M37.2293 37.4012C38.0241 36.6027 38.0241 35.3082 37.2293 34.5097L3.47427 0.598841C2.67948 -0.199613 1.39088 -0.199614 0.59609 0.598841C-0.198697 1.3973 -0.198696 2.69185 0.59609 3.4903L34.3511 37.4012C35.1459 38.1996 36.4345 38.1996 37.2293 37.4012Z" fill="#4D94C7"/>
</svg>
