<svg width="168" height="168" viewBox="0 0 168 168" fill="none" xmlns="http://www.w3.org/2000/svg">
<g clip-path="url(#clip0)">
<path d="M15.2728 0H152.726C161.161 0 167.999 6.838 167.999 15.2728V152.726C167.999 161.161 161.161 167.999 152.726 167.999H15.2728C6.838 167.999 0 161.161 0 152.726V15.2728C0 6.838 6.838 0 15.2728 0Z" fill="#5628B4"/>
<path d="M7.63623 30.5469H160.362C164.58 30.5469 167.999 33.9657 167.999 38.1831V38.1835C167.999 42.4009 164.58 45.8197 160.362 45.8197H7.63623C3.41882 45.8197 0 42.4009 0 38.1835V38.1831C0 33.9657 3.41882 30.5469 7.63623 30.5469Z" fill="#3D068C"/>
<path d="M15.2728 0H152.727C161.162 0 168 6.838 168 15.2728V38.1819H0V15.2728C0 6.838 6.838 0 15.2728 0Z" fill="#F0EAF9"/>
<path d="M41.9999 53.4558H148.909C151.017 53.4558 152.727 55.1654 152.727 57.2741C152.727 59.3828 151.017 61.0924 148.909 61.0924H41.9999C39.8912 61.0924 38.1816 59.3828 38.1816 57.2741C38.1816 55.1654 39.8912 53.4558 41.9999 53.4558Z" fill="#B8A4DF"/>
<path d="M41.9999 68.7261H80.1815C82.2902 68.7261 83.9998 70.4357 83.9998 72.5444C83.9998 74.6531 82.2902 76.3627 80.1815 76.3627H41.9999C39.8912 76.3627 38.1816 74.6531 38.1816 72.5444C38.1816 70.4357 39.8912 68.7261 41.9999 68.7261Z" fill="#F7B236"/>
<path d="M41.9999 84H80.1815C82.2902 84 83.9998 85.7096 83.9998 87.8183C83.9998 89.927 82.2902 91.6362 80.1815 91.6362H41.9999C39.8912 91.6362 38.1816 89.9266 38.1816 87.8183C38.1816 85.7096 39.8912 84 41.9999 84Z" fill="#B8A4DF"/>
<path d="M41.9999 114.544H57.2724C59.3811 114.544 61.0907 116.254 61.0907 118.363C61.0907 120.471 59.3811 122.181 57.2724 122.181H41.9999C39.8912 122.181 38.1816 120.471 38.1816 118.363C38.1816 116.254 39.8912 114.544 41.9999 114.544Z" fill="#7F5CC6"/>
<path d="M41.9999 99.2739H57.2724C59.3811 99.2739 61.0907 100.984 61.0907 103.092C61.0907 105.201 59.3811 106.911 57.2724 106.911H41.9999C39.8912 106.911 38.1816 105.201 38.1816 103.092C38.1816 100.984 39.8912 99.2739 41.9999 99.2739Z" fill="#7F5CC6"/>
<path d="M19.0898 145.092H26.726C28.8347 145.092 30.5443 146.802 30.5443 148.91C30.5443 151.019 28.8347 152.729 26.726 152.729H19.0898C16.9811 152.729 15.2715 151.019 15.2715 148.91C15.2715 146.802 16.9811 145.092 19.0898 145.092Z" fill="#D80E70"/>
<path d="M19.0898 129.818H26.726C28.8347 129.818 30.5443 131.528 30.5443 133.636C30.5443 135.745 28.8347 137.455 26.726 137.455H19.0898C16.9811 137.455 15.2715 135.745 15.2715 133.636C15.2715 131.528 16.9811 129.818 19.0898 129.818Z" fill="#D80E70"/>
<path d="M19.0898 99.2739H26.726C28.8347 99.2739 30.5443 100.984 30.5443 103.092C30.5443 105.201 28.8347 106.911 26.726 106.911H19.0898C16.9811 106.911 15.2715 105.201 15.2715 103.092C15.2715 100.984 16.9811 99.2739 19.0898 99.2739Z" fill="#D80E70"/>
<path d="M19.0898 114.544H26.726C28.8347 114.544 30.5443 116.254 30.5443 118.362C30.5443 120.471 28.8347 122.181 26.726 122.181H19.0898C16.9811 122.181 15.2715 120.471 15.2715 118.362C15.2715 116.254 16.9811 114.544 19.0898 114.544Z" fill="#D80E70"/>
<path d="M19.0898 84H26.726C28.8347 84 30.5443 85.7096 30.5443 87.8183C30.5443 89.927 28.8347 91.6362 26.726 91.6362H19.0898C16.9811 91.6362 15.2715 89.9266 15.2715 87.8183C15.2715 85.7096 16.9811 84 19.0898 84Z" fill="#D80E70"/>
<path d="M19.0898 68.7261H26.726C28.8347 68.7261 30.5443 70.4357 30.5443 72.5444C30.5443 74.6531 28.8347 76.3627 26.726 76.3627H19.0898C16.9811 76.3627 15.2715 74.6531 15.2715 72.5444C15.2715 70.4357 16.9811 68.7261 19.0898 68.7261Z" fill="#D80E70"/>
<path d="M19.0898 53.4558H26.726C28.8347 53.4558 30.5443 55.1654 30.5443 57.2741C30.5443 59.3828 28.8347 61.0924 26.726 61.0924H19.0898C16.9811 61.0924 15.2715 59.3828 15.2715 57.2741C15.2715 55.1654 16.9811 53.4558 19.0898 53.4558Z" fill="#D80E70"/>
<path d="M41.9999 145.092H49.6362C51.7449 145.092 53.4545 146.802 53.4545 148.91C53.4545 151.019 51.7449 152.729 49.6362 152.729H41.9999C39.8912 152.729 38.1816 151.019 38.1816 148.91C38.1816 146.802 39.8912 145.092 41.9999 145.092Z" fill="#7F5CC6"/>
<path d="M41.9999 129.818H64.9076C67.0163 129.818 68.7258 131.528 68.7258 133.636C68.7258 135.745 67.0163 137.455 64.9076 137.455H41.9999C39.8912 137.455 38.1816 135.745 38.1816 133.636C38.1816 131.528 39.8912 129.818 41.9999 129.818Z" fill="#B8A4DF"/>
<path d="M80.1835 129.818H103.091C105.2 129.818 106.909 131.528 106.909 133.636C106.909 135.745 105.2 137.455 103.091 137.455H80.1835C78.0748 137.455 76.3652 135.745 76.3652 133.636C76.3652 131.528 78.0748 129.818 80.1835 129.818Z" fill="#B8A4DF"/>
<path d="M95.4531 84H133.635C135.743 84 137.453 85.7096 137.453 87.8183C137.453 89.927 135.743 91.6362 133.635 91.6362H95.4531C93.3444 91.6362 91.6348 89.9266 91.6348 87.8183C91.6348 85.7096 93.3444 84 95.4531 84Z" fill="#B8A4DF"/>
<path d="M19.0917 22.9105C21.2005 22.9105 22.91 21.201 22.91 19.0922C22.91 16.9834 21.2005 15.2739 19.0917 15.2739C16.9829 15.2739 15.2734 16.9834 15.2734 19.0922C15.2734 21.201 16.9829 22.9105 19.0917 22.9105Z" fill="#F7B236"/>
<path d="M34.3632 22.9105C36.472 22.9105 38.1815 21.201 38.1815 19.0922C38.1815 16.9834 36.472 15.2739 34.3632 15.2739C32.2544 15.2739 30.5449 16.9834 30.5449 19.0922C30.5449 21.201 32.2544 22.9105 34.3632 22.9105Z" fill="#420FAB"/>
<path d="M49.6367 22.9105C51.7454 22.9105 53.4549 21.201 53.4549 19.0922C53.4549 16.9834 51.7454 15.2739 49.6367 15.2739C47.5279 15.2739 45.8184 16.9834 45.8184 19.0922C45.8184 21.201 47.5279 22.9105 49.6367 22.9105Z" fill="#D80E70"/>
<path d="M11.455 30.5469H156.547C158.655 30.5469 160.365 32.2565 160.365 34.3652C160.365 36.4739 158.655 38.1835 156.547 38.1835H11.455C9.34631 38.1835 7.63672 36.4739 7.63672 34.3652C7.63672 32.2565 9.34631 30.5469 11.455 30.5469Z" fill="#D9C9EF"/>
<path d="M164.181 53.4548C162.072 53.4548 160.363 55.1641 160.363 57.2728C160.363 57.2728 160.363 57.2728 160.363 57.2731V152.728C160.363 156.945 156.944 160.364 152.726 160.364H110.727C108.618 160.364 106.908 162.073 106.908 164.182C106.908 166.291 108.618 168 110.727 168H152.726C161.161 168 167.999 161.162 167.999 152.728V57.2728C167.999 55.1641 166.29 53.4548 164.181 53.4548Z" fill="#3D068C"/>
<path d="M3.8183 68.7261C5.927 68.7261 7.63659 70.4357 7.63659 72.5444V133.635C7.63659 135.744 5.927 137.453 3.8183 137.453C1.70959 137.453 0 135.744 0 133.635V72.5444C0 70.4357 1.70959 68.7261 3.8183 68.7261Z" fill="#7047BF"/>
</g>
<defs>
<clipPath id="clip0">
<rect width="168" height="168" fill="white"/>
</clipPath>
</defs>
</svg>
