<svg width="31" height="31" viewBox="0 0 31 31" fill="none" xmlns="http://www.w3.org/2000/svg">
<circle cx="15.793" cy="15.0728" r="15" fill="url(#paint0_linear)"/>
<path fill-rule="evenodd" clip-rule="evenodd" d="M22.8983 22.9506C23.0561 22.7892 23.3503 22.4958 23.5339 22.3209C23.7175 22.146 23.7904 22.0896 23.8572 22.0565C23.924 22.0234 23.9847 22.0136 24.0314 22.0218C24.0781 22.0299 24.1109 22.0561 24.1339 22.0871C24.1568 22.1182 24.1699 22.1542 24.1822 22.2171C24.1945 22.28 24.206 22.3699 24.224 22.4974C24.242 22.6249 24.2666 22.79 24.2855 22.9346C24.3043 23.0793 24.3174 23.2035 24.3158 23.2877C24.3142 23.3718 24.2978 23.416 24.2634 23.4642C24.2289 23.5124 24.1765 23.5647 24.1281 23.6023C24.0798 23.6399 24.0355 23.6628 23.9831 23.6734C23.9306 23.684 23.87 23.6824 23.7978 23.6766C23.7257 23.6709 23.6421 23.6611 23.5634 23.6497C23.4847 23.6382 23.411 23.6252 23.3364 23.6129C23.2618 23.6007 23.1864 23.5892 23.1004 23.5761C23.0143 23.5631 22.9176 23.5484 22.8496 23.5345C22.7815 23.5206 22.7422 23.5075 22.7151 23.4854C22.6881 23.4634 22.6734 23.4323 22.6635 23.3996C22.6537 23.3669 22.6488 23.3326 22.6553 23.2942C22.6619 23.2558 22.6799 23.2133 22.6996 23.1773C22.7193 23.1414 22.7406 23.1119 22.8983 22.9506V22.9506Z" fill="#FEFEFE"/>
<path fill-rule="evenodd" clip-rule="evenodd" d="M9.80938 6.92717C10.3938 6.39209 10.9037 6.32711 11.3884 6.69796C19.0465 14.3341 22.9002 18.135 22.9002 18.135C23.3877 18.5834 23.6778 19.0525 23.7706 19.5423C23.8367 19.9904 23.8952 20.4284 23.9461 20.8563C23.9562 20.9418 23.9288 20.995 23.8933 21.0728C23.7791 21.3226 23.5562 21.5806 23.2247 21.8468C22.4674 22.5823 22.0887 22.95 22.0887 22.95C21.8652 23.2008 21.3286 23.0779 20.9433 23.0004C20.0715 22.8252 19.9918 22.9659 19.2759 22.293C11.6308 14.6699 7.80825 10.8584 7.80825 10.8584C7.44166 10.5304 7.263 10.2787 7.27224 10.1032C7.26534 10.0141 7.2661 9.93058 7.2745 9.85282C7.30398 9.57988 7.50443 9.28792 7.67049 9.07056C7.79327 8.9099 7.94565 8.74292 8.12761 8.56972C8.58664 8.09574 9.14722 7.54822 9.80938 6.92717V6.92717Z" fill="#FEFEFE"/>
<path fill-rule="evenodd" clip-rule="evenodd" d="M8.89073 7.83153C8.86057 7.88807 8.85992 7.94307 8.86698 7.99672C8.87402 8.05038 8.88876 8.10269 8.9109 8.15499C8.93303 8.20729 8.96253 8.2596 9.00351 8.316C9.04449 8.37237 9.09696 8.43284 9.2912 8.63144C9.48544 8.83001 9.82147 9.16672 10.1108 9.45848C10.4001 9.75023 10.6427 9.99702 10.9205 10.2749C11.1984 10.5528 11.5115 10.8616 11.6877 11.0333C11.8639 11.2049 11.9032 11.2392 11.9221 11.2556C11.9409 11.2719 11.9393 11.2703 12.2735 10.933C12.6077 10.5956 13.2777 9.92263 13.6131 9.58655C13.9485 9.25045 13.9494 9.25127 13.9481 9.25004C13.9469 9.24882 13.9436 9.24554 13.5222 8.82562C13.1008 8.40569 12.2613 7.56913 11.8419 7.15124C11.4226 6.73336 11.4234 6.73418 11.4008 6.71663C11.3781 6.69906 11.332 6.6631 11.2783 6.62923C11.2245 6.59533 11.1631 6.56351 11.0989 6.53816C11.0347 6.51281 10.9676 6.49396 10.8956 6.48349C10.8235 6.473 10.7465 6.47091 10.674 6.4771C10.6016 6.48329 10.5336 6.49776 10.4729 6.51575C10.4121 6.53373 10.3585 6.55525 10.2886 6.59196C10.2187 6.62865 10.1324 6.68058 10.0537 6.73534C9.97499 6.79009 9.90377 6.8477 9.83862 6.90415C9.77346 6.9606 9.71438 7.01592 9.63866 7.08736C9.56292 7.15881 9.47057 7.24637 9.36805 7.34431C9.26553 7.44226 9.15286 7.55054 9.0667 7.63373C8.98052 7.71692 8.92088 7.77499 8.89073 7.83153V7.83153Z" fill="url(#paint1_linear)"/>
<path fill-rule="evenodd" clip-rule="evenodd" d="M23.8944 21.0727C23.8324 21.1999 23.7637 21.3082 23.6884 21.3976C23.2708 21.3717 22.9328 21.341 22.6744 21.3056C22.1907 21.283 21.6268 20.9594 20.9827 20.3347L12.8837 12.2343L11.0464 14.086L10.6309 13.6717L14.5052 9.80225L23.1557 18.3904C23.4677 18.7179 23.6731 19.1018 23.7717 19.5422C23.8829 20.3692 23.9384 20.7826 23.9384 20.7826C23.9632 20.8862 23.9485 20.9829 23.8944 21.0727V21.0727Z" fill="url(#paint2_linear)"/>
<defs>
<linearGradient id="paint0_linear" x1="6.7796" y1="6.1579" x2="34.4134" y2="34.0452" gradientUnits="userSpaceOnUse">
<stop stop-color="#85E31C"/>
<stop offset="0.368627" stop-color="#2CC02B"/>
<stop offset="1" stop-color="#298822"/>
</linearGradient>
<linearGradient id="paint1_linear" x1="10.2802" y1="7.28803" x2="13.8195" y2="10.8113" gradientUnits="userSpaceOnUse">
<stop stop-color="#C6C6C6"/>
<stop offset="0.611765" stop-color="#E2E2E2"/>
<stop offset="1" stop-color="#FEFEFE"/>
</linearGradient>
<linearGradient id="paint2_linear" x1="14.7028" y1="11.4399" x2="23.2524" y2="20.6436" gradientUnits="userSpaceOnUse">
<stop stop-color="#C6C6C6"/>
<stop offset="0.670588" stop-color="#E2E2E2"/>
<stop offset="1" stop-color="#FEFEFE"/>
</linearGradient>
</defs>
</svg>
