<svg width="168" height="168" viewBox="0 0 168 168" fill="none" xmlns="http://www.w3.org/2000/svg">
<path d="M15.2726 0.00195312H152.724C161.159 0.00195312 167.996 6.83986 167.996 15.2746V137.456C167.996 145.89 161.159 152.728 152.724 152.728H15.2726C6.83791 152.728 0 145.89 0 137.456V15.2746C0 6.83986 6.83791 0.00195312 15.2726 0.00195312Z" fill="#F0EAF9"/>
<path d="M7.63614 30.5474H160.36C164.578 30.5474 167.996 33.9661 167.996 38.1835V38.1839C167.996 42.4012 164.578 45.82 160.36 45.82H7.63614C3.41878 45.82 0 42.4012 0 38.1839V38.1835C0 33.9661 3.41878 30.5474 7.63614 30.5474Z" fill="#E1D5F3"/>
<path d="M15.2726 0.00195312H152.725C161.16 0.00195312 167.998 6.83986 167.998 15.2746V38.1833H0V15.2746C0 6.83986 6.83791 0.00195312 15.2726 0.00195312Z" fill="#5628B4"/>
<path d="M11.455 30.5474H156.545C158.653 30.5474 160.363 32.2569 160.363 34.3656C160.363 36.4743 158.653 38.1839 156.545 38.1839H11.455C9.34629 38.1839 7.63672 36.4743 7.63672 34.3656C7.63672 32.2569 9.34629 30.5474 11.455 30.5474Z" fill="#421198"/>
<path d="M164.178 53.4551C162.069 53.4551 160.36 55.1643 160.36 57.273C160.36 57.273 160.36 57.273 160.36 57.2733V137.454C160.36 141.671 156.941 145.09 152.724 145.09H110.725C108.616 145.09 106.906 146.8 106.906 148.908C106.906 151.017 108.616 152.727 110.725 152.727H152.724C161.159 152.727 167.996 145.889 167.996 137.454V57.2733C167.996 55.1643 166.287 53.4551 164.178 53.4551Z" fill="#D9C9EF"/>
<path d="M3.81825 68.7263C5.92693 68.7263 7.63649 70.4359 7.63649 72.5446V133.634C7.63649 135.743 5.92693 137.453 3.81825 137.453C1.70957 137.453 0 135.743 0 133.634V72.5446C0 70.4359 1.70957 68.7263 3.81825 68.7263Z" fill="#DFD2F2"/>
<path d="M19.0917 22.9111C21.2004 22.9111 22.9099 21.2017 22.9099 19.0929C22.9099 16.9841 21.2004 15.2747 19.0917 15.2747C16.9829 15.2747 15.2734 16.9841 15.2734 19.0929C15.2734 21.2017 16.9829 22.9111 19.0917 22.9111Z" fill="#F7B236"/>
<path d="M34.3612 22.9111C36.47 22.9111 38.1795 21.2017 38.1795 19.0929C38.1795 16.9841 36.47 15.2747 34.3612 15.2747C32.2525 15.2747 30.543 16.9841 30.543 19.0929C30.543 21.2017 32.2525 22.9111 34.3612 22.9111Z" fill="#B39DDD"/>
<path d="M49.6366 22.9111C51.7454 22.9111 53.4548 21.2017 53.4548 19.0929C53.4548 16.9841 51.7454 15.2747 49.6366 15.2747C47.5278 15.2747 45.8184 16.9841 45.8184 19.0929C45.8184 21.2017 47.5278 22.9111 49.6366 22.9111Z" fill="#D80E70"/>
<path d="M145.089 106.909H68.726C64.5086 106.909 61.0898 103.49 61.0898 99.2725V61.0922C61.0898 56.8748 64.5086 53.4561 68.726 53.4561H145.089C149.306 53.4561 152.725 56.8748 152.725 61.0922V99.2725C152.725 103.49 149.306 106.909 145.089 106.909Z" fill="#B39DDD"/>
<path d="M38.1792 83.9999H22.9076C18.6903 83.9999 15.2715 80.5811 15.2715 76.3637V61.0922C15.2715 56.8748 18.6903 53.4561 22.9076 53.4561H38.1792C42.3965 53.4561 45.8153 56.8748 45.8153 61.0922V76.3637C45.8153 80.5811 42.3965 83.9999 38.1792 83.9999Z" fill="#B39DDD"/>
<path d="M38.1792 137.453H22.9076C18.6903 137.453 15.2715 134.034 15.2715 129.816V114.545C15.2715 110.327 18.6903 106.909 22.9076 106.909H38.1792C42.3965 106.909 45.8153 110.327 45.8153 114.545V129.816C45.8153 134.034 42.3965 137.453 38.1792 137.453Z" fill="#B39DDD"/>
<path d="M64.9081 114.544H87.8154C89.9241 114.544 91.6337 116.253 91.6337 118.362C91.6337 120.471 89.9241 122.18 87.8154 122.18H64.9081C62.7994 122.18 61.0898 120.471 61.0898 118.362C61.0898 116.253 62.7994 114.544 64.9081 114.544Z" fill="#B39DDD"/>
<path d="M141.269 114.544H148.906C151.014 114.544 152.724 116.253 152.724 118.362C152.724 120.471 151.014 122.18 148.906 122.18H141.269C139.161 122.18 137.451 120.471 137.451 118.362C137.451 116.253 139.161 114.544 141.269 114.544Z" fill="#B39DDD"/>
<path d="M103.09 114.544H125.997C128.106 114.544 129.815 116.253 129.815 118.362C129.815 120.471 128.106 122.18 125.997 122.18H103.09C100.981 122.18 99.2715 120.471 99.2715 118.362C99.2715 116.253 100.981 114.544 103.09 114.544Z" fill="#B39DDD"/>
<path d="M64.9081 129.817H95.4541C97.5628 129.817 99.2723 131.527 99.2723 133.636C99.2723 135.744 97.5628 137.454 95.4541 137.454H64.9081C62.7994 137.454 61.0898 135.744 61.0898 133.636C61.0898 131.527 62.7994 129.817 64.9081 129.817Z" fill="#B39DDD"/>
<path d="M110.725 129.817H118.361C120.469 129.817 122.179 131.527 122.179 133.636C122.179 135.744 120.469 137.454 118.361 137.454H110.725C108.616 137.454 106.906 135.744 106.906 133.636C106.906 131.527 108.616 129.817 110.725 129.817Z" fill="#B39DDD"/>
<path d="M41.9971 99.2737H19.0897C16.9811 99.2737 15.2715 97.5641 15.2715 95.4554C15.2715 93.3468 16.9811 91.6372 19.0897 91.6372H41.9971C44.1057 91.6372 45.8153 93.3468 45.8153 95.4554C45.8153 97.5641 44.1057 99.2737 41.9971 99.2737Z" fill="#B39DDD"/>
<path d="M83.9984 114.545H76.3629C55.2761 114.545 38.1816 131.639 38.1816 152.726C38.1816 152.727 38.1816 152.727 38.1816 152.727V152.929C38.2088 157.1 34.5272 160.363 30.3561 160.363H26.7265C24.6178 160.363 22.9082 162.072 22.9082 164.181C22.9082 166.29 24.6178 167.999 26.7265 167.999H53.4535C74.5403 167.999 91.6345 150.904 91.6345 129.818V114.545H83.9984Z" fill="#F7B236"/>
<path d="M91.6345 129.818V114.545H83.9984C83.9984 135.632 66.9041 152.726 45.817 152.726H38.1819V152.929C38.2091 157.1 34.5272 160.362 30.3564 160.362H26.7265C24.6178 160.362 22.9082 162.072 22.9082 164.181C22.9082 166.289 24.6178 167.999 26.7265 167.999H53.4535C74.5403 167.999 91.6345 150.904 91.6345 129.818Z" fill="#F58B04"/>
<path d="M165.438 40.7418C163.098 38.4018 159.637 37.5846 156.498 38.6313C129.584 48.1409 107.41 67.7226 94.6448 93.2533L91.6348 99.2726V114.545H106.907L112.927 111.536C138.457 98.77 158.039 76.5961 167.549 49.6826C168.595 46.5427 167.778 43.0817 165.438 40.7418Z" fill="#D80E70"/>
<path d="M136.544 62.0032C133.562 59.0211 124.713 63.0353 116.779 70.9692C108.846 78.9031 104.831 87.7522 107.813 90.7343C110.795 93.7163 119.645 89.7021 127.578 81.7682C135.512 73.8344 139.527 64.9853 136.544 62.0032Z" fill="#E976AF"/>
<path d="M156.497 38.6309C155.175 39.0981 153.921 39.6998 152.622 40.2145C151.628 74.4527 125.659 102.774 91.6348 106.726V114.545H106.907L112.927 111.535C138.457 98.7697 158.039 76.5958 167.549 49.6823C169.075 45.1045 166.6 40.1565 162.022 38.6309C160.229 38.0332 158.291 38.0332 156.497 38.6309Z" fill="#A60068"/>
<path d="M83.998 114.545L91.6342 122.181L106.907 114.545L91.6342 99.2727L83.998 114.545Z" fill="#5628B4"/>
<path d="M88.1264 118.673L91.6347 122.181L106.907 114.545L99.5808 107.218C96.4176 104.055 91.2896 104.055 88.1264 107.218C87.5107 107.834 86.9985 108.545 86.6091 109.323C85.0502 112.442 85.6612 116.208 88.1264 118.673Z" fill="#420F9B"/>
<path d="M68.2446 123.012C65.9217 120.689 59.2294 123.615 53.2969 129.548C47.3643 135.48 44.4381 142.172 46.7609 144.495C49.0838 146.818 55.7761 143.892 61.7086 137.959C67.6412 132.027 70.5674 125.335 68.2446 123.012Z" fill="#FBDA9E"/>
</svg>
