<svg width="103" height="103" viewBox="0 0 103 103" fill="none" xmlns="http://www.w3.org/2000/svg">
<g clip-path="url(#clip0)">
<path d="M9.3637 0H93.6354C98.8068 0 102.999 4.19234 102.999 9.3637V93.6354C102.999 98.8068 98.8068 102.999 93.6354 102.999H9.3637C4.19234 102.999 0 98.8068 0 93.6354V9.3637C0 4.19234 4.19234 0 9.3637 0Z" fill="#5628B4"/>
<path d="M4.68174 18.728H98.3174C100.903 18.728 102.999 20.8241 102.999 23.4098V23.41C102.999 25.9957 100.903 28.0917 98.3174 28.0917H4.68174C2.09606 28.0917 0 25.9957 0 23.41V23.4098C0 20.8241 2.09606 18.728 4.68174 18.728Z" fill="#3D068C"/>
<path d="M9.3637 0H93.6363C98.8076 0 103 4.19234 103 9.3637V23.4091H0V9.3637C0 4.19234 4.19234 0 9.3637 0Z" fill="#F0EAF9"/>
<path d="M25.7492 32.7734H91.2944C92.5872 32.7734 93.6354 33.8216 93.6354 35.1144C93.6354 36.4073 92.5872 37.4554 91.2944 37.4554H25.7492C24.4563 37.4554 23.4082 36.4073 23.4082 35.1144C23.4082 33.8216 24.4563 32.7734 25.7492 32.7734Z" fill="#B8A4DF"/>
<path d="M25.7492 42.1355H49.1581C50.4509 42.1355 51.4991 43.1836 51.4991 44.4765C51.4991 45.7693 50.4509 46.8175 49.1581 46.8175H25.7492C24.4563 46.8175 23.4082 45.7693 23.4082 44.4765C23.4082 43.1836 24.4563 42.1355 25.7492 42.1355Z" fill="#F7B236"/>
<path d="M25.7492 51.5H49.1581C50.4509 51.5 51.4991 52.5481 51.4991 53.841C51.4991 55.1338 50.4509 56.1817 49.1581 56.1817H25.7492C24.4563 56.1817 23.4082 55.1336 23.4082 53.841C23.4082 52.5481 24.4563 51.5 25.7492 51.5Z" fill="#B8A4DF"/>
<path d="M25.7492 70.2266H35.1127C36.4055 70.2266 37.4536 71.2747 37.4536 72.5675C37.4536 73.8604 36.4055 74.9085 35.1127 74.9085H25.7492C24.4563 74.9085 23.4082 73.8604 23.4082 72.5675C23.4082 71.2747 24.4563 70.2266 25.7492 70.2266Z" fill="#7F5CC6"/>
<path d="M25.7492 60.8645H35.1127C36.4055 60.8645 37.4536 61.9126 37.4536 63.2055C37.4536 64.4983 36.4055 65.5465 35.1127 65.5465H25.7492C24.4563 65.5465 23.4082 64.4983 23.4082 63.2055C23.4082 61.9126 24.4563 60.8645 25.7492 60.8645Z" fill="#7F5CC6"/>
<path d="M11.7043 88.9551H16.386C17.6788 88.9551 18.727 90.0032 18.727 91.2961C18.727 92.5889 17.6788 93.637 16.386 93.637H11.7043C10.4114 93.637 9.36328 92.5889 9.36328 91.2961C9.36328 90.0032 10.4114 88.9551 11.7043 88.9551Z" fill="#D80E70"/>
<path d="M11.7043 79.5908H16.386C17.6788 79.5908 18.727 80.639 18.727 81.9318C18.727 83.2246 17.6788 84.2728 16.386 84.2728H11.7043C10.4114 84.2728 9.36328 83.2246 9.36328 81.9318C9.36328 80.639 10.4114 79.5908 11.7043 79.5908Z" fill="#D80E70"/>
<path d="M11.7043 60.8643H16.386C17.6788 60.8643 18.727 61.9124 18.727 63.2052C18.727 64.4981 17.6788 65.5462 16.386 65.5462H11.7043C10.4114 65.5462 9.36328 64.4981 9.36328 63.2052C9.36328 61.9124 10.4114 60.8643 11.7043 60.8643Z" fill="#D80E70"/>
<path d="M11.7043 70.2266H16.386C17.6788 70.2266 18.727 71.2747 18.727 72.5675C18.727 73.8604 17.6788 74.9085 16.386 74.9085H11.7043C10.4114 74.9085 9.36328 73.8604 9.36328 72.5675C9.36328 71.2747 10.4114 70.2266 11.7043 70.2266Z" fill="#D80E70"/>
<path d="M11.7043 51.5H16.386C17.6788 51.5 18.727 52.5481 18.727 53.841C18.727 55.1338 17.6788 56.1817 16.386 56.1817H11.7043C10.4114 56.1817 9.36328 55.1336 9.36328 53.841C9.36328 52.5481 10.4114 51.5 11.7043 51.5Z" fill="#D80E70"/>
<path d="M11.7043 42.1357H16.386C17.6788 42.1357 18.727 43.1839 18.727 44.4767C18.727 45.7696 17.6788 46.8177 16.386 46.8177H11.7043C10.4114 46.8177 9.36328 45.7696 9.36328 44.4767C9.36328 43.1839 10.4114 42.1357 11.7043 42.1357Z" fill="#D80E70"/>
<path d="M11.7043 32.7734H16.386C17.6788 32.7734 18.727 33.8216 18.727 35.1144C18.727 36.4073 17.6788 37.4554 16.386 37.4554H11.7043C10.4114 37.4554 9.36328 36.4073 9.36328 35.1144C9.36328 33.8216 10.4114 32.7734 11.7043 32.7734Z" fill="#D80E70"/>
<path d="M25.7492 88.9553H30.4309C31.7238 88.9553 32.7719 90.0035 32.7719 91.2963C32.7719 92.5891 31.7238 93.6373 30.4309 93.6373H25.7492C24.4563 93.6373 23.4082 92.5891 23.4082 91.2963C23.4082 90.0035 24.4563 88.9553 25.7492 88.9553Z" fill="#7F5CC6"/>
<path d="M25.7492 79.5908H39.7937C41.0866 79.5908 42.1347 80.639 42.1347 81.9318C42.1347 83.2246 41.0866 84.2728 39.7937 84.2728H25.7492C24.4563 84.2728 23.4082 83.2246 23.4082 81.9318C23.4082 80.639 24.4563 79.5908 25.7492 79.5908Z" fill="#B8A4DF"/>
<path d="M49.1593 79.5908H63.2039C64.4967 79.5908 65.5449 80.639 65.5449 81.9318C65.5449 83.2246 64.4967 84.2728 63.2039 84.2728H49.1593C47.8665 84.2728 46.8184 83.2246 46.8184 81.9318C46.8184 80.639 47.8665 79.5908 49.1593 79.5908Z" fill="#B8A4DF"/>
<path d="M58.5207 51.5H81.9296C83.2224 51.5 84.2706 52.5481 84.2706 53.841C84.2706 55.1338 83.2224 56.1817 81.9296 56.1817H58.5207C57.2278 56.1817 56.1797 55.1336 56.1797 53.841C56.1797 52.5481 57.2278 51.5 58.5207 51.5Z" fill="#B8A4DF"/>
<path d="M11.7062 14.0465C12.9991 14.0465 14.0472 12.9984 14.0472 11.7055C14.0472 10.4126 12.9991 9.3645 11.7062 9.3645C10.4133 9.3645 9.36523 10.4126 9.36523 11.7055C9.36523 12.9984 10.4133 14.0465 11.7062 14.0465Z" fill="#F7B236"/>
<path d="M21.0675 14.0465C22.3604 14.0465 23.4085 12.9984 23.4085 11.7055C23.4085 10.4126 22.3604 9.3645 21.0675 9.3645C19.7747 9.3645 18.7266 10.4126 18.7266 11.7055C18.7266 12.9984 19.7747 14.0465 21.0675 14.0465Z" fill="#420FAB"/>
<path d="M30.4308 14.0465C31.7237 14.0465 32.7718 12.9984 32.7718 11.7055C32.7718 10.4126 31.7237 9.3645 30.4308 9.3645C29.1379 9.3645 28.0898 10.4126 28.0898 11.7055C28.0898 12.9984 29.1379 14.0465 30.4308 14.0465Z" fill="#D80E70"/>
<path d="M7.02262 18.728H95.9776C97.2705 18.728 98.3186 19.7762 98.3186 21.069C98.3186 22.3618 97.2705 23.41 95.9776 23.41H7.02262C5.72978 23.41 4.68164 22.3618 4.68164 21.069C4.68164 19.7762 5.72978 18.728 7.02262 18.728Z" fill="#D9C9EF"/>
<path d="M100.659 32.7727C99.3657 32.7727 98.3175 33.8206 98.3175 35.1135C98.3175 35.1135 98.3175 35.1135 98.3175 35.1137V93.6364C98.3175 96.2221 96.2215 98.3181 93.6358 98.3181H67.8859C66.5931 98.3181 65.5449 99.3663 65.5449 100.659C65.5449 101.952 66.5931 103 67.8859 103H93.6358C98.8072 103 102.999 98.8077 103 93.6364V35.1135C103 33.8206 101.951 32.7727 100.659 32.7727Z" fill="#3D068C"/>
<path d="M2.34098 42.1355C3.63382 42.1355 4.68196 43.1836 4.68196 44.4765V81.9308C4.68196 83.2236 3.63382 84.2718 2.34098 84.2718C1.04814 84.2718 0 83.2236 0 81.9308V44.4765C0 43.1836 1.04814 42.1355 2.34098 42.1355Z" fill="#7047BF"/>
</g>
<defs>
<clipPath id="clip0">
<rect width="103" height="103" fill="white"/>
</clipPath>
</defs>
</svg>
