<svg width="31" height="31" viewBox="0 0 31 31" fill="none" xmlns="http://www.w3.org/2000/svg">
<circle cx="15.2266" cy="15.2827" r="15" fill="#F7DF1E"/>
<path d="M16.8792 18.024C17.4698 18.9882 18.2381 19.697 19.597 19.697C20.7386 19.697 21.4678 19.1264 21.4678 18.3381C21.4678 17.3934 20.7185 17.0588 19.462 16.5092L18.7733 16.2137C16.7852 15.3667 15.4645 14.3056 15.4645 12.0625C15.4645 9.99629 17.0389 8.42334 19.4993 8.42334C21.2509 8.42334 22.5102 9.03298 23.4177 10.6292L21.2723 12.0067C20.8 11.1597 20.2904 10.8261 19.4993 10.8261C18.6923 10.8261 18.1809 11.338 18.1809 12.0067C18.1809 12.8332 18.6928 13.1678 19.8748 13.6797L20.5636 13.9748C22.9044 14.9786 24.226 16.0019 24.226 18.3027C24.226 20.7831 22.2775 22.142 19.6608 22.142C17.1021 22.142 15.4491 20.9227 14.6403 19.3247L16.8792 18.024ZM7.14692 18.2627C7.57972 19.0305 7.97342 19.6797 8.91999 19.6797C9.82513 19.6797 10.3961 19.3256 10.3961 17.9486V8.58063H13.1511V17.9858C13.1511 20.8385 11.4786 22.1369 9.03726 22.1369C6.8314 22.1369 5.55396 20.9953 4.9043 19.6204L7.14692 18.2627Z" fill="black"/>
</svg>
