<svg width="176" height="169" viewBox="0 0 176 169" fill="none" xmlns="http://www.w3.org/2000/svg">
<path d="M159.701 43.1882C155.312 43.1882 151.754 39.6712 151.754 35.3326C151.754 26.6555 144.638 19.6211 135.86 19.6211H96.1246C87.3466 19.6211 80.2304 26.6555 80.2304 35.3326C80.2304 39.6712 76.6725 43.1882 72.2835 43.1882H32.5485C23.7705 43.1882 16.6543 50.2226 16.6543 58.8997V153.168C16.6543 161.845 23.7705 168.88 32.5485 168.88H159.701C168.479 168.88 175.595 161.845 175.595 153.168V58.8997C175.595 50.2222 168.479 43.1882 159.701 43.1882Z" fill="#5628B4"/>
<path d="M171.618 58.8993C173.813 58.8993 175.592 60.658 175.592 62.8273V149.24C175.592 151.409 173.813 153.168 171.618 153.168C169.424 153.168 167.645 151.409 167.645 149.24V62.8273C167.645 60.658 169.424 58.8993 171.618 58.8993Z" fill="#421198"/>
<path d="M53.1005 70.0102L107.367 16.3671C113.575 10.2312 123.638 10.2312 129.845 16.3671L170.945 56.9938C177.152 63.1297 177.152 73.0776 170.945 79.2135L116.677 132.856C110.47 138.992 100.407 138.992 94.1992 132.856L53.1005 92.2299C46.8936 86.094 46.8936 76.1461 53.1005 70.0102Z" fill="#F0EAF9"/>
<path d="M127.912 121.745L170.939 79.2124C177.146 73.0769 177.146 63.1293 170.939 56.9934L170.939 56.993L164.921 51.0438H143.806C135.028 51.0438 127.912 58.0779 127.912 66.755V66.7554V121.745Z" fill="#F0EAF9"/>
<path d="M147.195 36.627C145.001 34.4577 141.443 34.4577 139.248 36.627L126.646 49.0844C124.451 51.2537 124.451 54.7703 126.646 56.9396V56.94C128.84 59.1092 132.398 59.1092 134.593 56.94L147.195 44.4825C149.39 42.3133 149.39 38.7962 147.195 36.627Z" fill="#D80E70"/>
<path d="M78.2628 2.48C74.3229 -0.193297 69.0593 0.350527 65.8182 3.76475L35.7078 35.4832C34.3907 32.4071 32.4547 29.6288 30.0214 27.3225C22.2166 19.9134 11.4364 18.5978 5.94342 24.3841C0.450473 30.1704 2.32473 40.8676 10.1295 48.2767C17.9343 55.6858 28.7145 57.0015 34.2074 51.2152L66.3452 17.361L99.0289 39.5357L77.6682 62.0372C76.351 58.9612 74.415 56.1828 71.9814 53.8769C64.1766 46.4678 53.3964 45.1522 47.9035 50.9385C42.4105 56.7248 44.2848 67.422 52.0896 74.8311C59.8943 82.2402 70.6745 83.5558 76.1675 77.7695L112.635 39.3549C116.296 35.4974 116.102 29.3673 112.199 25.6627C111.81 25.2933 111.391 24.9562 110.947 24.655L78.2628 2.48Z" fill="#F7B236"/>
<path d="M13.2304 37.935C15.1817 39.7873 18.2478 39.7253 20.0789 37.7965C21.9099 35.8676 21.8125 32.8024 19.8612 30.95C17.9099 29.0977 14.8438 29.1597 13.0127 31.0885C11.1817 33.0174 11.2791 36.0826 13.2304 37.935Z" fill="#FBDA9E"/>
<path d="M55.1894 64.4913C57.1406 66.3436 60.2068 66.2816 62.0379 64.3528C63.8689 62.4239 63.7715 59.3586 61.8202 57.5063C59.8689 55.654 56.8027 55.716 54.9717 57.6448C53.1406 59.5737 53.2381 62.6389 55.1894 64.4913Z" fill="#FBDA9E"/>
<path d="M175.463 66.7552H96.1227C87.3447 66.7552 80.2289 73.7893 80.2285 82.4664V82.4668V119.049L94.1946 132.855C100.401 138.99 110.465 138.991 116.672 132.855L116.672 132.855L170.938 79.2127C174.241 75.9291 175.899 71.3656 175.463 66.7552Z" fill="#DFD2F2"/>
<path d="M159.699 168.879H32.5462C23.7682 168.879 16.652 161.845 16.652 153.168L0.757812 90.3225C0.757812 81.6454 7.87402 74.611 16.652 74.611H143.805C152.583 74.611 159.699 81.645 159.699 90.3225L175.593 153.168C175.593 161.845 168.477 168.879 159.699 168.879Z" fill="#5628B4"/>
<path d="M15.7171 112.873C17.7699 112.391 19.8252 113.664 20.3075 115.717L27.2935 145.454C27.7758 147.507 26.5025 149.562 24.4497 150.044C22.3969 150.526 20.3416 149.253 19.8593 147.2L12.8733 117.464C12.3913 115.411 13.6643 113.355 15.7171 112.873Z" fill="#6F48BF"/>
</svg>
