<svg width="31" height="30" viewBox="0 0 31 30" fill="none" xmlns="http://www.w3.org/2000/svg">
<circle cx="15.0781" cy="15" r="15" fill="#001E36"/>
<path d="M7.08594 20.9152V8.88623C7.08594 8.8044 7.12114 8.75764 7.20327 8.75764C7.40273 8.75764 7.59045 8.75764 7.86031 8.74595C8.1419 8.73426 8.43522 8.73426 8.75201 8.72257C9.0688 8.71088 9.40906 8.71088 9.77278 8.69919C10.1365 8.6875 10.4885 8.6875 10.8405 8.6875C11.8026 8.6875 12.6004 8.8044 13.2575 9.04989C13.8441 9.24862 14.3838 9.57594 14.8297 10.0085C15.2051 10.3825 15.4984 10.8385 15.6862 11.3411C15.8622 11.8321 15.956 12.3348 15.956 12.8608C15.956 13.8661 15.7214 14.6961 15.2521 15.3508C14.7827 16.0054 14.1257 16.4964 13.3631 16.7769C12.5652 17.0692 11.6852 17.1744 10.7231 17.1744C10.4416 17.1744 10.2538 17.1744 10.1365 17.1627C10.0192 17.151 9.85491 17.151 9.63198 17.151V20.9035C9.64371 20.9853 9.58505 21.0555 9.50292 21.0672C9.49119 21.0672 9.47945 21.0672 9.45599 21.0672H7.22673C7.13287 21.0672 7.08594 21.0204 7.08594 20.9152ZM9.64372 11.0138V14.9416C9.80798 14.9533 9.9605 14.965 10.1013 14.965H10.7231C11.1807 14.965 11.6383 14.8949 12.0724 14.7546C12.4479 14.6494 12.7764 14.4273 13.0345 14.135C13.2809 13.8428 13.3983 13.4453 13.3983 12.931C13.41 12.5686 13.3161 12.2062 13.1284 11.8905C12.9289 11.5866 12.6473 11.3528 12.3071 11.2242C11.873 11.0489 11.4037 10.9787 10.9226 10.9904C10.6175 10.9904 10.3477 10.9904 10.1248 11.0021C9.89011 10.9904 9.72585 11.0021 9.64372 11.0138Z" fill="#31A8FF"/>
<path d="M23.2784 14.2284C22.9264 14.0413 22.5509 13.9127 22.152 13.8309C21.7179 13.7374 21.2838 13.6789 20.8379 13.6789C20.6033 13.6672 20.3569 13.7023 20.1339 13.7608C19.9814 13.7958 19.8523 13.8777 19.7702 13.9946C19.7115 14.0881 19.6763 14.205 19.6763 14.3102C19.6763 14.4154 19.7233 14.5206 19.7937 14.6141C19.8993 14.7427 20.0401 14.8479 20.1926 14.9298C20.4625 15.07 20.744 15.1986 21.0256 15.3155C21.6592 15.5259 22.2693 15.8182 22.8325 16.1689C23.2197 16.4144 23.5365 16.7417 23.7594 17.1392C23.9471 17.5132 24.041 17.9224 24.0293 18.3432C24.041 18.8926 23.8767 19.4421 23.5717 19.898C23.2432 20.3656 22.7856 20.728 22.2576 20.9384C21.6827 21.1839 20.9787 21.3125 20.1339 21.3125C19.5942 21.3125 19.0662 21.2657 18.5383 21.1605C18.1276 21.0904 17.7169 20.9618 17.3415 20.7864C17.2594 20.7397 17.2007 20.6578 17.2124 20.5643V18.5303C17.2124 18.4952 17.2242 18.4484 17.2594 18.425C17.2946 18.4017 17.3298 18.4134 17.365 18.4367C17.8225 18.7056 18.3036 18.8926 18.8198 19.0095C19.2657 19.1264 19.735 19.1849 20.2043 19.1849C20.6502 19.1849 20.967 19.1264 21.1782 19.0212C21.3659 18.9394 21.495 18.7407 21.495 18.5303C21.495 18.3666 21.4011 18.2146 21.2134 18.0627C21.0256 17.9107 20.6385 17.7353 20.0635 17.5132C19.4652 17.3028 18.9137 17.0223 18.3975 16.6716C18.0337 16.4144 17.7287 16.0754 17.5058 15.6779C17.318 15.3038 17.2242 14.8947 17.2359 14.4855C17.2359 13.9829 17.3767 13.5036 17.6348 13.071C17.9281 12.6035 18.3623 12.2294 18.8668 11.9956C19.4182 11.715 20.1105 11.5864 20.9435 11.5864C21.4246 11.5864 21.9173 11.6215 22.3984 11.6916C22.7504 11.7384 23.0906 11.8319 23.4074 11.9605C23.4544 11.9722 23.5013 12.019 23.5248 12.0657C23.5365 12.1125 23.5482 12.1592 23.5482 12.206V14.1115C23.5482 14.1582 23.5248 14.205 23.4896 14.2284C23.384 14.2517 23.3253 14.2517 23.2784 14.2284Z" fill="#31A8FF"/>
</svg>
