<svg width="168" height="168" viewBox="0 0 168 168" fill="none" xmlns="http://www.w3.org/2000/svg">
<path d="M15.2715 22.9091H152.726V122.182H15.2715V22.9091Z" fill="#F2EDF9"/>
<path d="M22.9082 103.091C22.9082 96.7647 28.0366 91.6363 34.3627 91.6363H91.6354C95.8528 91.6363 99.2716 88.2174 99.2716 84C99.2716 79.7826 95.8528 76.3638 91.6354 76.3638H61.0901C56.8727 76.3638 53.4539 72.945 53.4539 68.7276C53.4539 64.5101 56.8727 61.0913 61.0901 61.0913H99.272C103.489 61.0913 106.908 57.6725 106.908 53.4551C106.908 49.2377 103.489 45.8189 99.272 45.8189H91.6354C87.418 45.8189 83.9991 42.4 83.9991 38.1826C83.9991 33.9652 87.418 30.5464 91.6354 30.5464H145.09C149.307 30.5464 152.726 33.9652 152.726 38.1826V99.2736C152.726 107.708 145.888 114.545 137.453 114.545H34.3627C28.0366 114.545 22.9082 109.417 22.9082 103.091Z" fill="#E2D7F2"/>
<path d="M148.91 22.908C151.019 22.908 152.728 24.6175 152.728 26.7263V57.2726C152.728 59.3813 151.019 61.0909 148.91 61.0909C146.801 61.0909 145.092 59.3813 145.092 57.2726V26.7263C145.092 24.6175 146.801 22.908 148.91 22.908Z" fill="#A087DB"/>
<path d="M15.273 106.909H152.729C156.946 106.909 160.365 110.328 160.365 114.545V114.546C160.365 118.763 156.946 122.182 152.729 122.182H15.273C11.0555 122.182 7.63672 118.763 7.63672 114.546V114.545C7.63672 110.328 11.0555 106.909 15.273 106.909Z" fill="#BAA1DF"/>
<path d="M152.728 106.909C156.945 106.909 160.364 110.328 160.364 114.545C160.364 118.763 156.945 122.182 152.728 122.182C148.511 122.182 145.092 118.763 145.092 114.545C145.091 110.328 148.511 106.909 152.728 106.909Z" fill="#A087DB"/>
<path d="M15.2728 0H152.727C161.162 0 168 6.83764 168 15.2728C168 23.7077 161.162 30.5456 152.727 30.5456H15.2728C6.838 30.5456 0 23.7077 0 15.2728C0 6.838 6.83764 0 15.2728 0Z" fill="#5628B4"/>
<path d="M80.1806 129.818C69.6371 129.818 61.0898 138.365 61.0898 148.909C61.0898 159.452 69.6371 168 80.1806 168C90.7241 168 99.2713 159.452 99.2713 148.909C99.2717 138.365 90.7245 129.818 80.1806 129.818C80.1809 129.818 80.1806 129.818 80.1806 129.818ZM80.1806 160.363C73.8545 160.363 68.7261 155.235 68.7261 148.909C68.7261 142.583 73.8545 137.454 80.1806 137.454C86.5067 137.454 91.6351 142.583 91.6351 148.909C91.6351 155.235 86.5067 160.363 80.1806 160.363Z" fill="#5628B4"/>
<path d="M80.18 114.544C82.2887 114.544 83.9979 116.254 83.9979 118.362V137.454C83.9979 139.563 82.2883 141.273 80.1796 141.273C78.0709 141.273 76.3613 139.563 76.3613 137.454V118.362C76.362 116.254 78.0713 114.544 80.18 114.544Z" fill="#7C57C5"/>
<path d="M53.4546 76.365H53.455C57.6724 76.365 61.0912 79.7838 61.0912 84.0012V84.0016C61.0912 88.219 57.6724 91.6378 53.455 91.6378H53.4546C49.2372 91.6378 45.8184 88.219 45.8184 84.0016V84.0012C45.8184 79.7838 49.2372 76.365 53.4546 76.365Z" fill="#5628B4"/>
<path d="M83.9995 61.0909H83.9999C88.2173 61.0909 91.6361 64.5098 91.6361 68.7272V83.9989C91.6361 88.2164 88.2173 91.6352 83.9999 91.6352H83.9995C79.7821 91.6352 76.3633 88.2164 76.3633 83.9989V68.7272C76.3633 64.5098 79.7821 61.0909 83.9995 61.0909Z" fill="#F7B236"/>
<path d="M30.5444 22.908H137.452C141.67 22.908 145.089 26.3268 145.089 30.5442V30.5446C145.089 34.762 141.67 38.1808 137.452 38.1808H30.5444C26.327 38.1808 22.9082 34.762 22.9082 30.5446V30.5442C22.9082 26.3268 26.327 22.908 30.5444 22.908Z" fill="#C7B2E4"/>
<path d="M166.663 21.4665C164.713 17.6726 160.81 15.2836 156.544 15.2728H11.4533C7.18761 15.2836 3.28412 17.6729 1.33398 21.4665C3.7763 26.9819 9.2394 30.5406 15.2713 30.5453H152.726C158.758 30.5406 164.221 26.9822 166.663 21.4665Z" fill="#5628B4"/>
<path d="M114.544 45.8169C118.762 45.8169 122.181 49.2357 122.181 53.4531V83.9988C122.181 88.2162 118.762 91.635 114.545 91.635H114.544C110.327 91.635 106.908 88.2162 106.908 83.9988V53.4531C106.908 49.2357 110.327 45.8169 114.544 45.8169Z" fill="#D80E70"/>
<path d="M87.8183 68.726C89.927 68.726 91.6366 70.4355 91.6366 72.5443V80.1805C91.6366 82.2892 89.927 83.9988 87.8183 83.9988C85.7096 83.9988 84 82.2892 84 80.1805V72.5443C84.0004 70.4355 85.7096 68.726 87.8183 68.726Z" fill="#FAC76E"/>
<path d="M152.726 30.5456C161.161 30.5456 167.999 23.7078 167.999 15.2728C167.999 6.83788 161.161 0 152.726 0C144.291 0 137.453 6.83788 137.453 15.2728C137.453 23.7078 144.291 30.5456 152.726 30.5456Z" fill="#6F48BF"/>
<path d="M15.273 7.6366H45.8186C50.036 7.6366 53.4548 11.0554 53.4548 15.2728V15.2732C53.4548 19.4906 50.036 22.9094 45.8186 22.9094H15.273C11.0555 22.9094 7.63672 19.4906 7.63672 15.2732V15.2728C7.63672 11.0554 11.0555 7.6366 15.273 7.6366Z" fill="#5628B4"/>
<path d="M68.7261 7.6366H122.181C126.398 7.6366 129.817 11.0554 129.817 15.2728V15.2732C129.817 19.4906 126.398 22.9094 122.181 22.9094H68.7261C64.5087 22.9094 61.0898 19.4906 61.0898 15.2732V15.2728C61.0898 11.0554 64.5087 7.6366 68.7261 7.6366Z" fill="#5628B4"/>
<path d="M30.5444 61.0909H38.181C42.3984 61.0909 45.8173 64.5098 45.8173 68.7272V68.7275C45.8173 72.945 42.3984 76.3638 38.181 76.3638H30.5444C26.327 76.3638 22.9082 72.945 22.9082 68.7275V68.7272C22.9082 64.5098 26.327 61.0909 30.5444 61.0909Z" fill="#E2D7F2"/>
<path d="M11.455 106.909H42.0014C44.1101 106.909 45.8197 108.619 45.8197 110.727C45.8197 112.836 44.1101 114.546 42.0014 114.546H11.455C9.34631 114.546 7.63672 112.836 7.63672 110.727C7.63672 108.619 9.34595 106.909 11.455 106.909Z" fill="#D3C3EA"/>
<path d="M57.2734 106.909H141.273C143.382 106.909 145.091 108.619 145.091 110.727C145.091 112.836 143.382 114.546 141.273 114.546H57.2734C55.1647 114.546 53.4551 112.836 53.4551 110.727C53.4551 108.619 55.1643 106.909 57.2734 106.909Z" fill="#D3C3EA"/>
<path d="M118.361 53.4559C120.47 53.4559 122.18 55.1655 122.18 57.2742V80.1819C122.18 82.2906 120.47 84.0002 118.361 84.0002C116.253 84.0002 114.543 82.2906 114.543 80.1819V57.2742C114.543 55.1655 116.253 53.4559 118.361 53.4559Z" fill="#E35197"/>
</svg>
