<?xml version="1.0" encoding="UTF-8"?>
<!DOCTYPE svg PUBLIC "-//W3C//DTD SVG 1.1//EN" "http://www.w3.org/Graphics/SVG/1.1/DTD/svg11.dtd">
<!-- Creator: CorelDRAW X7 -->
<svg xmlns="http://www.w3.org/2000/svg" xml:space="preserve" width="12.6998mm" height="12.6998mm" version="1.1" style="shape-rendering:geometricPrecision; text-rendering:geometricPrecision; image-rendering:optimizeQuality; fill-rule:evenodd; clip-rule:evenodd"
viewBox="0 0 1269980 1269980"
 xmlns:xlink="http://www.w3.org/1999/xlink">
 <defs>
  <style type="text/css">
   <![CDATA[
    .fil0 {fill:#4C75A3}
    .fil1 {fill:white}
   ]]>
  </style>
 </defs>
 <g id="Слой_x0020_1">
  <metadata id="CorelCorpID_0Corel-Layer"/>
  <circle class="fil0" cx="634990" cy="634990" r="635000"/>
  <g>
   <path class="fil1" d="M649430 902160c0,0 14920,-1640 22540,-9850 7010,-7540 6790,-21690 6790,-21690 0,0 -970,-66250 29780,-76010 30320,-9620 69240,64030 110500,92360 31200,21420 54910,16730 54910,16730l110320 -1540c0,0 57710,-3560 30350,-48940 -2240,-3700 -15940,-33560 -82030,-94910 -69190,-64200 -59910,-53820 23420,-164880 50740,-67640 71030,-108930 64690,-126610 -6040,-16850 -43370,-12400 -43370,-12400l-124210 770c0,0 -9220,-1260 -16040,2830 -6680,3990 -10960,13320 -10960,13320 0,0 -19670,52340 -45880,96860 -55320,93920 -77440,98890 -86480,93050 -21030,-13600 -15780,-54600 -15780,-83740 0,-91030 13810,-128980 -26880,-138800 -13500,-3260 -23450,-5420 -57980,-5770 -44330,-450 -81830,140 -103080,10540 -14130,6930 -25030,22340 -18390,23230 8210,1100 26800,5020 36660,18430 12730,17320 12290,56210 12290,56210 0,0 7310,107150 -17090,120460 -16740,9130 -39710,-9510 -89020,-94720 -25260,-43650 -44350,-91900 -44350,-91900 0,0 -3670,-9020 -10230,-13840 -7960,-5850 -19080,-7700 -19080,-7700l-118050 770c0,0 -17710,490 -24220,8200 -5790,6860 -470,21030 -470,21030 0,0 92410,216200 197060,325160 95960,99910 204910,93350 204910,93350l49370 0zm-49370 0l0 0 0 0z"/>
  </g>
 </g>
</svg>
