<?xml version="1.0" encoding="utf-8"?>
<!-- Generator: Adobe Illustrator 24.0.1, SVG Export Plug-In . SVG Version: 6.00 Build 0)  -->
<svg version="1.1" id="Слой_1" focusable="false"
	 xmlns="http://www.w3.org/2000/svg" xmlns:xlink="http://www.w3.org/1999/xlink" x="0px" y="0px" viewBox="0 0 43.6 39"
	 style="enable-background:new 0 0 43.6 39;" xml:space="preserve">
<style type="text/css">
	.st0{fill:#F8F8F8;stroke:#0CB71B;stroke-width:2;stroke-miterlimit:10;}
	.st1{fill:#0CB71B;}
</style>
<path class="st0" d="M41.5,17.2h-2.1c-0.6-1.4-1.6-2.7-2.7-3.8L38,7.9h-2.3c-2.1,0-4,1-5.3,2.5c-0.5-0.1-1.1-0.2-1.7-0.2h-9.3
	c-5.6,0-10.3,4-11.3,9.3H5c-1.1,0-1.9-1-1.7-2.1C3.5,16.6,4.3,16,5.1,16h0.1c0.2,0,0.4-0.2,0.4-0.4v-1.4c0-0.2-0.2-0.4-0.4-0.4
	c-2.1,0-3.9,1.5-4.2,3.5c-0.3,2.5,1.6,4.6,4,4.6h2.9c0,3.8,1.8,7.1,4.6,9.2v5.8c0,0.6,0.5,1.2,1.2,1.2h4.6c0.6,0,1.2-0.5,1.2-1.2
	v-3.5h9.3v3.5c0,0.6,0.5,1.2,1.2,1.2h4.6c0.6,0,1.2-0.5,1.2-1.2V31c0.9-0.6,1.6-1.4,2.3-2.3h3.5c0.6,0,1.2-0.5,1.2-1.2v-9.3
	C42.6,17.7,42.1,17.2,41.5,17.2z"/>
<circle class="st1" cx="32.2" cy="20.7" r="1.2"/>
<path class="st0" d="M19.5,9.9h9.3c0.4,0,0.8,0,1.1,0.1c0,0,0,0,0-0.1C29.9,6.1,26.8,3,23,3S16,6.1,16,9.9c0,0.2,0,0.3,0,0.4
	C17.2,10.1,18.3,9.9,19.5,9.9z"/>
</svg>
