<?xml version="1.0" encoding="utf-8"?>
<!-- Generator: Adobe Illustrator 24.0.1, SVG Export Plug-In . SVG Version: 6.00 Build 0)  -->
<svg version="1.1" id="Слой_1" focusable="false"
	 xmlns="http://www.w3.org/2000/svg" xmlns:xlink="http://www.w3.org/1999/xlink" x="0px" y="0px" viewBox="0 0 43.6 39"
	 style="enable-background:new 0 0 43.6 39;" xml:space="preserve">
<style type="text/css">
	.st0{display:none;fill:#F8F8F8;stroke:#0CB71B;stroke-width:2;stroke-miterlimit:10;}
	.st1{display:none;fill:#0CB71B;}
	.st2{fill:#F8F8F8;stroke:#0CB71B;stroke-width:2;stroke-miterlimit:10;}
	.st3{display:none;}
	.st4{display:inline;fill:#F8F8F8;}
	.st5{display:inline;fill:#0CB71B;}
</style>
<path class="st0" d="M41.5,17.2h-2.1c-0.6-1.4-1.6-2.7-2.7-3.8L38,7.9h-2.3c-2.1,0-4,1-5.3,2.5c-0.5-0.1-1.1-0.2-1.7-0.2h-9.3
	c-5.6,0-10.3,4-11.3,9.3H5c-1.1,0-1.9-1-1.7-2.1C3.5,16.6,4.3,16,5.1,16h0.1c0.2,0,0.4-0.2,0.4-0.4v-1.4c0-0.2-0.2-0.4-0.4-0.4
	c-2.1,0-3.9,1.5-4.2,3.5c-0.3,2.5,1.6,4.6,4,4.6h2.9c0,3.8,1.8,7.1,4.6,9.2v5.8c0,0.6,0.5,1.2,1.2,1.2h4.6c0.6,0,1.2-0.5,1.2-1.2
	v-3.5h9.3v3.5c0,0.6,0.5,1.2,1.2,1.2h4.6c0.6,0,1.2-0.5,1.2-1.2V31c0.9-0.6,1.6-1.4,2.3-2.3h3.5c0.6,0,1.2-0.5,1.2-1.2v-9.3
	C42.6,17.7,42.1,17.2,41.5,17.2z"/>
<circle class="st1" cx="32.2" cy="20.7" r="1.2"/>
<path class="st0" d="M19.5,9.9h9.3c0.4,0,0.8,0,1.1,0.1c0,0,0,0,0-0.1C29.9,6.1,26.8,3,23,3S16,6.1,16,9.9c0,0.2,0,0.3,0,0.4
	C17.2,10.1,18.3,9.9,19.5,9.9z"/>
<path class="st0" d="M36.4,28.3l-5.8-6.5h2.2c0.6,0,1.2-0.4,1.5-0.9c0.3-0.6,0.2-1.2-0.2-1.7l-5.6-6.6h2.1c0.7,0,1.2-0.4,1.5-1
	c0.3-0.6,0.1-1.3-0.3-1.7l-7.9-8.5c-0.4-0.5-1.2-0.5-1.7,0l-7.9,8.5c-0.4,0.5-0.6,1.1-0.3,1.7c0.3,0.6,0.8,1,1.5,1h2.1l-5.6,6.6
	c-0.4,0.5-0.5,1.2-0.2,1.7c0.3,0.6,0.8,0.9,1.5,0.9h2.2l-5.8,6.5c-0.4,0.5-0.5,1.2-0.3,1.7c0.3,0.6,0.9,1,1.5,1h9.9v1.8l-2.2,3.5
	c-0.4,0.8,0.2,1.7,1,1.7h6.9c0.9,0,1.4-0.9,1-1.7l-2.2-3.5V31h9.9c0.6,0,1.2-0.4,1.5-1C37,29.4,36.9,28.8,36.4,28.3z"/>
<path class="st0" d="M40.1,16.3l-4.8-8.2c-0.5-0.9-1.7-1.2-2.6-0.7l-4.2,2.4l3.6,6.1c0.1,0.2,0.1,0.5-0.2,0.6L31.1,17
	c-0.2,0.1-0.5,0.1-0.7-0.2l-3.6-6.1l-3.3,1.9l1.7,2.9c0.1,0.2,0.1,0.5-0.2,0.6l-0.8,0.5c-0.2,0.1-0.5,0.1-0.7-0.2l-1.7-2.9l-3.3,1.9
	l3.6,6.1c0.1,0.2,0.1,0.5-0.2,0.6l-0.8,0.5c-0.2,0.1-0.5,0.1-0.7-0.2l-3.6-6.1l-3.3,1.9l1.7,2.9c0.1,0.2,0.1,0.5-0.2,0.6l-0.8,0.5
	c-0.2,0.1-0.5,0.1-0.7-0.2l-1.7-2.9l-3.3,1.9l3.6,6.1c0.1,0.2,0.1,0.5-0.2,0.6l-0.8,0.5c-0.2,0.1-0.5,0.1-0.7-0.2L6.9,22l-4.2,2.4
	C1.8,24.9,1.5,26.1,2,27l4.8,8.2c0.5,0.9,1.7,1.2,2.6,0.7l30-17C40.3,18.3,40.7,17.2,40.1,16.3L40.1,16.3z"/>
<path class="st0" d="M15.6,14.5"/>
<path class="st2" d="M39.5,26.5v8.9c0,1.1-0.8,1.9-1.9,1.9c0,0,0,0,0,0h-8.9c-1.7,0-2.6-2.1-1.4-3.3l2.9-2.9l-8.5-8.5l-8.5,8.5
	l2.9,2.9c1.2,1.2,0.3,3.3-1.4,3.3H5.7c-1.1,0-1.9-0.8-1.9-1.9c0,0,0,0,0,0v-8.9c0-1.7,2.1-2.6,3.3-1.4L9.9,28l8.5-8.5L9.9,11
	l-2.9,2.9c-1.2,1.2-3.3,0.4-3.3-1.4V3.6c0-1.1,0.8-1.9,1.9-1.9c0,0,0,0,0,0h8.9c1.7,0,2.6,2.1,1.4,3.3l-2.9,2.9l8.5,8.5l8.5-8.5
	l-2.9-2.9c-1.2-1.2-0.3-3.3,1.4-3.3h8.9c1.1,0,1.9,0.8,1.9,1.9c0,0,0,0,0,0v8.9c0,1.7-2.1,2.6-3.3,1.4L33.3,11l-8.5,8.5l8.5,8.5
	l2.9-2.9C37.4,23.9,39.5,24.8,39.5,26.5z"/>
<g class="st3">
	<path class="st4" d="M3.7,13.8c-1.4,0-2.6-1.2-2.6-2.6v-5c0-1.4,1.2-2.6,2.6-2.6h36.1c1.4,0,2.6,1.2,2.6,2.6v5
		c0,1.4-1.2,2.6-2.6,2.6H3.7z"/>
	<path class="st5" d="M39.9,4.6c0.9,0,1.6,0.7,1.6,1.6v5c0,0.9-0.7,1.6-1.6,1.6H3.7c-0.9,0-1.6-0.7-1.6-1.6v-5
		c0-0.9,0.7-1.6,1.6-1.6H39.9 M39.9,2.6H3.7c-2,0-3.6,1.6-3.6,3.6v5c0,2,1.6,3.6,3.6,3.6h36.1c2,0,3.6-1.6,3.6-3.6v-5
		C43.5,4.3,41.9,2.6,39.9,2.6L39.9,2.6z"/>
</g>
<g class="st3">
	<path class="st4" d="M3.7,34.5c-1.4,0-2.6-1.2-2.6-2.6v-5c0-1.4,1.2-2.6,2.6-2.6h36.1c1.4,0,2.6,1.2,2.6,2.6v5
		c0,1.4-1.2,2.6-2.6,2.6H3.7z"/>
	<path class="st5" d="M39.9,25.3c0.9,0,1.6,0.7,1.6,1.6v5c0,0.9-0.7,1.6-1.6,1.6H3.7c-0.9,0-1.6-0.7-1.6-1.6v-5
		c0-0.9,0.7-1.6,1.6-1.6H39.9 M39.9,23.3H3.7c-2,0-3.6,1.6-3.6,3.6v5c0,2,1.6,3.6,3.6,3.6h36.1c2,0,3.6-1.6,3.6-3.6v-5
		C43.5,25,41.9,23.3,39.9,23.3L39.9,23.3z"/>
</g>
<g class="st3">
	<path class="st4" d="M4.1,37C3,37,2,36.4,1.4,35.4c-0.5-1-0.5-2.2,0.1-3.1L19.3,3.5c0.5-0.9,1.5-1.4,2.5-1.4c1,0,2,0.5,2.5,1.4
		l17.8,28.8c0.6,0.9,0.6,2.1,0.1,3.1c-0.5,1-1.5,1.6-2.6,1.6H4.1z M17.9,20.2l3.2-3.4c0.2-0.2,0.4-0.3,0.7-0.3h3.5l-3.5-5.6l-5,8.2
		L17.9,20.2z"/>
	<path class="st5" d="M21.8,3.1c0.7,0,1.3,0.4,1.7,0.9l17.8,28.8l0,0c0.4,0.6,0.4,1.4,0.1,2.1c-0.3,0.7-1,1.1-1.7,1.1H4.1
		c0,0,0,0,0,0c-0.7,0-1.4-0.4-1.7-1.1C2,34.3,2,33.5,2.4,32.9L20.2,4C20.5,3.4,21.2,3.1,21.8,3.1 M17.9,21.6l3.9-4.1h5.3L21.8,9
		l-6.3,10.2L17.9,21.6 M21.8,1.1c-1.4,0-2.6,0.7-3.4,1.9L0.7,31.8c-0.8,1.2-0.8,2.8-0.1,4.1c0.7,1.3,2,2.1,3.5,2.1h35.5
		c1.5,0,2.8-0.8,3.5-2.1c0.7-1.3,0.6-2.8-0.1-4.1L25.2,3C24.5,1.8,23.2,1.1,21.8,1.1L21.8,1.1z M18.7,17.9l3.2-5.2l1.7,2.7h-1.7
		c-0.5,0-1.1,0.2-1.4,0.6L18.7,17.9L18.7,17.9z"/>
</g>
<g class="st3">
	<path class="st4" d="M3.9,36.7c-1.1,0-2-1-2-2.1v-2.2c0-1.1,0.8-2,1.8-2.1C5,30.1,6.1,29.7,7,28.9c0.7-0.6,1.5-0.9,2.4-0.9
		c0.8,0,1.5,0.3,2.1,0.8c1.1,0.9,2.6,1.4,4.3,1.4c1.6,0,3.1-0.5,4.2-1.3c0.7-0.6,1.5-0.9,2.4-0.9c0.8,0,1.5,0.3,2.1,0.8
		c1.1,0.9,2.6,1.4,4.3,1.4c1.6,0,3.1-0.5,4.2-1.3c0.6-0.5,1.4-0.8,2.2-0.8c0.8,0,1.6,0.3,2.3,0.8c0.9,0.7,2.1,1.2,3.4,1.4
		c1,0.1,1.8,1.1,1.8,2.1v2.2c0,0.5-0.2,1.1-0.6,1.5c-0.4,0.4-0.9,0.7-1.5,0.7c0,0-0.1,0-0.2,0c-1.8-0.2-3.6-0.7-5.2-1.6
		c-1.9,1.1-4.1,1.6-6.4,1.6c-2.3,0-4.6-0.6-6.5-1.6c-1.9,1.1-4.1,1.6-6.4,1.6c-2.3,0-4.6-0.6-6.5-1.6C7.8,36,6,36.6,4.1,36.7
		C4.1,36.7,3.9,36.7,3.9,36.7z"/>
	<path class="st5" d="M22.3,29c0.5,0,1,0.2,1.4,0.5c1.3,1.1,3.1,1.7,5,1.7c1.8,0,3.6-0.5,4.8-1.6c0.5-0.4,1-0.6,1.6-0.6
		c0.6,0,1.2,0.2,1.6,0.6c1.1,0.9,2.4,1.4,3.9,1.6c0.5,0.1,0.9,0.6,0.9,1.1v2.2c0,0.6-0.5,1.1-1,1.1c0,0-0.1,0-0.1,0
		c-1.9-0.2-3.7-0.8-5.3-1.8c-1.9,1.2-4.1,1.8-6.4,1.8c-2.3,0-4.6-0.6-6.5-1.8c-1.9,1.2-4.1,1.8-6.4,1.8c-2.3,0-4.6-0.6-6.5-1.8
		c-1.6,1-3.4,1.6-5.3,1.8c0,0-0.1,0-0.1,0c-0.6,0-1-0.5-1-1.1v-2.2c0-0.6,0.4-1,0.9-1.1c1.5-0.2,2.8-0.7,3.9-1.6
		c0.5-0.4,1.1-0.7,1.8-0.7c0.5,0,1,0.2,1.4,0.5c1.3,1.1,3.1,1.7,5,1.7c1.8,0,3.5-0.5,4.8-1.6C21.1,29.3,21.7,29,22.3,29 M22.3,27
		L22.3,27c-1.1,0-2.1,0.4-3,1.1c-0.8,0.7-2.1,1.1-3.5,1.1c-1.4,0-2.8-0.4-3.7-1.2c-0.8-0.7-1.7-1-2.7-1c-1.1,0-2.1,0.4-3,1.1
		c-0.7,0.6-1.7,1-2.8,1.1c-1.5,0.2-2.7,1.5-2.7,3.1v2.2c0,1.7,1.4,3.1,3,3.1c0.1,0,0.2,0,0.3,0C6,37.6,7.8,37,9.3,36.2
		c1.9,1,4.2,1.5,6.4,1.5c2.3,0,4.5-0.5,6.4-1.5c1.9,1,4.2,1.5,6.5,1.5c2.3,0,4.5-0.5,6.4-1.5c1.6,0.8,3.3,1.3,5.1,1.5
		c0.1,0,0.2,0,0.3,0c1.7,0,3-1.4,3-3.1v-2.2c0-1.6-1.1-2.9-2.7-3.1c-1.1-0.1-2.1-0.5-2.9-1.2c-0.8-0.7-1.8-1-2.9-1
		c-1.1,0-2.1,0.4-2.9,1.1c-0.8,0.7-2.1,1.1-3.5,1.1c-1.4,0-2.8-0.4-3.7-1.2C24.3,27.4,23.3,27,22.3,27L22.3,27L22.3,27z"/>
</g>
<g class="st3">
	<path class="st4" d="M3.9,23.6c-1.1,0-2-1-2-2.1v-2.2c0-1.1,0.8-2,1.8-2.1C5,17,6.1,16.5,7,15.8c0.7-0.6,1.5-0.9,2.4-0.9
		c0.8,0,1.5,0.3,2.1,0.8c1.1,0.9,2.6,1.4,4.3,1.4c1.6,0,3.1-0.5,4.2-1.3c0.7-0.6,1.5-0.9,2.4-0.9c0.8,0,1.5,0.3,2.1,0.8
		c1.1,0.9,2.6,1.4,4.3,1.4c1.6,0,3.1-0.5,4.2-1.3c0.6-0.5,1.4-0.8,2.2-0.8c0.8,0,1.6,0.3,2.3,0.8c0.9,0.7,2.1,1.2,3.4,1.4
		c1,0.1,1.8,1.1,1.8,2.1v2.2c0,0.5-0.2,1.1-0.6,1.5c-0.4,0.4-0.9,0.7-1.5,0.7c0,0-0.1,0-0.2,0c-1.8-0.2-3.6-0.7-5.2-1.6
		c-1.9,1.1-4.1,1.6-6.4,1.6c-2.3,0-4.6-0.6-6.5-1.6c-1.9,1.1-4.1,1.6-6.4,1.6c-2.3,0-4.6-0.6-6.5-1.6c-1.6,0.9-3.4,1.5-5.2,1.6
		C4.1,23.6,3.9,23.6,3.9,23.6z"/>
	<path class="st5" d="M22.3,15.9c0.5,0,1,0.2,1.4,0.5c1.3,1.1,3.1,1.7,5,1.7c1.8,0,3.6-0.5,4.8-1.6c0.5-0.4,1-0.6,1.6-0.6
		c0.6,0,1.2,0.2,1.6,0.6c1.1,0.9,2.4,1.4,3.9,1.6c0.5,0.1,0.9,0.6,0.9,1.1v2.2c0,0.6-0.5,1.1-1,1.1c0,0-0.1,0-0.1,0
		c-1.9-0.2-3.7-0.8-5.3-1.8c-1.9,1.2-4.1,1.8-6.4,1.8c-2.3,0-4.6-0.6-6.5-1.8c-1.9,1.2-4.1,1.8-6.4,1.8c-2.3,0-4.6-0.6-6.5-1.8
		c-1.6,1-3.4,1.6-5.3,1.8c0,0-0.1,0-0.1,0c-0.6,0-1-0.5-1-1.1v-2.2c0-0.6,0.4-1,0.9-1.1c1.5-0.2,2.8-0.7,3.9-1.6
		c0.5-0.4,1.1-0.7,1.8-0.7c0.5,0,1,0.2,1.4,0.5c1.3,1.1,3.1,1.7,5,1.7c1.8,0,3.5-0.5,4.8-1.6C21.1,16.1,21.7,15.9,22.3,15.9
		 M22.3,13.9C22.3,13.9,22.3,13.9,22.3,13.9c-1.1,0-2.1,0.4-3,1.1c-0.8,0.7-2.1,1.1-3.5,1.1c-1.4,0-2.8-0.4-3.7-1.2
		c-0.8-0.7-1.7-1-2.7-1c-1.1,0-2.1,0.4-3,1.1c-0.7,0.6-1.7,1-2.8,1.1c-1.5,0.2-2.7,1.5-2.7,3.1v2.2c0,1.7,1.4,3.1,3,3.1
		c0.1,0,0.2,0,0.3,0c1.8-0.2,3.6-0.7,5.2-1.5c1.9,1,4.2,1.5,6.4,1.5c2.3,0,4.5-0.5,6.4-1.5c1.9,1,4.2,1.5,6.5,1.5
		c2.3,0,4.5-0.5,6.4-1.5c1.6,0.8,3.3,1.3,5.1,1.5c0.1,0,0.2,0,0.3,0c1.7,0,3-1.4,3-3.1v-2.2c0-1.6-1.1-2.9-2.7-3.1
		C39.8,16,38.8,15.6,38,15c-0.8-0.7-1.8-1-2.9-1c-1.1,0-2.1,0.4-2.9,1.1c-0.8,0.7-2.1,1.1-3.5,1.1c-1.4,0-2.8-0.4-3.7-1.2
		C24.3,14.2,23.3,13.9,22.3,13.9L22.3,13.9L22.3,13.9z"/>
</g>
<g class="st3">
	<path class="st4" d="M3.9,10.4c-1.1,0-2-1-2-2.1V6.1c0-1.1,0.8-2,1.8-2.1C5,3.8,6.1,3.4,7,2.6c0.7-0.6,1.5-0.9,2.4-0.9
		c0.8,0,1.5,0.3,2.1,0.8c1.1,0.9,2.6,1.4,4.3,1.4c1.6,0,3.1-0.5,4.2-1.3c0.7-0.6,1.5-0.9,2.4-0.9c0.8,0,1.5,0.3,2.1,0.8
		c1.1,0.9,2.6,1.4,4.3,1.4c1.6,0,3.1-0.5,4.2-1.3c0.6-0.5,1.4-0.8,2.2-0.8c0.8,0,1.6,0.3,2.3,0.8c0.9,0.7,2.1,1.2,3.4,1.4
		c1,0.1,1.8,1.1,1.8,2.1v2.2c0,0.5-0.2,1.1-0.6,1.5c-0.4,0.4-0.9,0.7-1.5,0.7c0,0-0.1,0-0.2,0c-1.8-0.2-3.6-0.7-5.2-1.6
		c-1.9,1.1-4.1,1.6-6.4,1.6c-2.3,0-4.6-0.6-6.5-1.6c-1.9,1.1-4.1,1.6-6.4,1.6c-2.3,0-4.6-0.6-6.5-1.6C7.8,9.7,6,10.2,4.1,10.4
		C4.1,10.4,3.9,10.4,3.9,10.4z"/>
	<path class="st5" d="M22.3,2.7c0.5,0,1,0.2,1.4,0.5c1.3,1.1,3.1,1.7,5,1.7c1.8,0,3.6-0.5,4.8-1.6c0.5-0.4,1-0.6,1.6-0.6
		c0.6,0,1.2,0.2,1.6,0.6c1.1,0.9,2.4,1.4,3.9,1.6c0.5,0.1,0.9,0.6,0.9,1.1v2.2c0,0.6-0.5,1.1-1,1.1c0,0-0.1,0-0.1,0
		c-1.9-0.2-3.7-0.8-5.3-1.8c-1.9,1.2-4.1,1.8-6.4,1.8c-2.3,0-4.6-0.6-6.5-1.8c-1.9,1.2-4.1,1.8-6.4,1.8c-2.3,0-4.6-0.6-6.5-1.8
		C7.8,8.6,5.9,9.2,4,9.4c0,0-0.1,0-0.1,0c-0.6,0-1-0.5-1-1.1V6.1c0-0.6,0.4-1,0.9-1.1c1.5-0.2,2.8-0.7,3.9-1.6
		C8.2,3,8.8,2.7,9.4,2.7c0.5,0,1,0.2,1.4,0.5c1.3,1.1,3.1,1.7,5,1.7c1.8,0,3.5-0.5,4.8-1.6C21.1,3,21.7,2.7,22.3,2.7 M22.3,0.7
		C22.3,0.7,22.3,0.7,22.3,0.7c-1.1,0-2.1,0.4-3,1.1c-0.8,0.7-2.1,1.1-3.5,1.1c-1.4,0-2.8-0.4-3.7-1.2c-0.8-0.7-1.7-1-2.7-1
		c-1.1,0-2.1,0.4-3,1.1C5.7,2.5,4.7,2.9,3.6,3C2,3.1,0.9,4.5,0.9,6.1v2.2c0,1.7,1.4,3.1,3,3.1c0.1,0,0.2,0,0.3,0
		c1.8-0.2,3.6-0.7,5.2-1.5c1.9,1,4.2,1.5,6.4,1.5c2.3,0,4.5-0.5,6.4-1.5c1.9,1,4.2,1.5,6.5,1.5c2.3,0,4.5-0.5,6.4-1.5
		c1.6,0.8,3.3,1.3,5.1,1.5c0.1,0,0.2,0,0.3,0c1.7,0,3-1.4,3-3.1V6.1c0-1.6-1.1-2.9-2.7-3.1c-1.1-0.1-2.1-0.5-2.9-1.2
		c-0.8-0.7-1.8-1-2.9-1c-1.1,0-2.1,0.4-2.9,1.1c-0.8,0.7-2.1,1.1-3.5,1.1c-1.4,0-2.8-0.4-3.7-1.2C24.3,1.1,23.3,0.7,22.3,0.7
		L22.3,0.7z"/>
</g>
</svg>
