<?xml version="1.0" encoding="utf-8"?>
<!-- Generator: Adobe Illustrator 24.0.1, SVG Export Plug-In . SVG Version: 6.00 Build 0)  -->
<svg version="1.1" id="Слой_1" focusable="false"
	 xmlns="http://www.w3.org/2000/svg" xmlns:xlink="http://www.w3.org/1999/xlink" x="0px" y="0px" viewBox="0 0 43.6 39"
	 style="enable-background:new 0 0 43.6 39;" xml:space="preserve">
<style type="text/css">
	.st0{display:none;fill:#F8F8F8;stroke:#0CB71B;stroke-width:2;stroke-miterlimit:10;}
	.st1{display:none;fill:#0CB71B;}
	.st2{fill:#F8F8F8;stroke:#0CB71B;stroke-width:2;stroke-miterlimit:10;}
</style>
<path class="st0" d="M41.5,17.2h-2.1c-0.6-1.4-1.6-2.7-2.7-3.8L38,7.9h-2.3c-2.1,0-4,1-5.3,2.5c-0.5-0.1-1.1-0.2-1.7-0.2h-9.3
	c-5.6,0-10.3,4-11.3,9.3H5c-1.1,0-1.9-1-1.7-2.1C3.5,16.6,4.3,16,5.1,16h0.1c0.2,0,0.4-0.2,0.4-0.4v-1.4c0-0.2-0.2-0.4-0.4-0.4
	c-2.1,0-3.9,1.5-4.2,3.5c-0.3,2.5,1.6,4.6,4,4.6h2.9c0,3.8,1.8,7.1,4.6,9.2v5.8c0,0.6,0.5,1.2,1.2,1.2h4.6c0.6,0,1.2-0.5,1.2-1.2
	v-3.5h9.3v3.5c0,0.6,0.5,1.2,1.2,1.2h4.6c0.6,0,1.2-0.5,1.2-1.2V31c0.9-0.6,1.6-1.4,2.3-2.3h3.5c0.6,0,1.2-0.5,1.2-1.2v-9.3
	C42.6,17.7,42.1,17.2,41.5,17.2z"/>
<circle class="st1" cx="32.2" cy="20.7" r="1.2"/>
<path class="st0" d="M19.5,9.9h9.3c0.4,0,0.8,0,1.1,0.1c0,0,0,0,0-0.1C29.9,6.1,26.8,3,23,3S16,6.1,16,9.9c0,0.2,0,0.3,0,0.4
	C17.2,10.1,18.3,9.9,19.5,9.9z"/>
<path class="st2" d="M36.4,28.3l-5.8-6.5h2.2c0.6,0,1.2-0.4,1.5-0.9c0.3-0.6,0.2-1.2-0.2-1.7l-5.6-6.6h2.1c0.7,0,1.2-0.4,1.5-1
	c0.3-0.6,0.1-1.3-0.3-1.7l-7.9-8.5c-0.4-0.5-1.2-0.5-1.7,0l-7.9,8.5c-0.4,0.5-0.6,1.1-0.3,1.7c0.3,0.6,0.8,1,1.5,1h2.1l-5.6,6.6
	c-0.4,0.5-0.5,1.2-0.2,1.7c0.3,0.6,0.8,0.9,1.5,0.9h2.2l-5.8,6.5c-0.4,0.5-0.5,1.2-0.3,1.7c0.3,0.6,0.9,1,1.5,1h9.9v1.8l-2.2,3.5
	c-0.4,0.8,0.2,1.7,1,1.7h6.9c0.9,0,1.4-0.9,1-1.7l-2.2-3.5V31h9.9c0.6,0,1.2-0.4,1.5-1C37,29.4,36.9,28.8,36.4,28.3z"/>
<path class="st0" d="M40.1,16.3l-4.8-8.2c-0.5-0.9-1.7-1.2-2.6-0.7l-4.2,2.4l3.6,6.1c0.1,0.2,0.1,0.5-0.2,0.6L31.1,17
	c-0.2,0.1-0.5,0.1-0.7-0.2l-3.6-6.1l-3.3,1.9l1.7,2.9c0.1,0.2,0.1,0.5-0.2,0.6l-0.8,0.5c-0.2,0.1-0.5,0.1-0.7-0.2l-1.7-2.9l-3.3,1.9
	l3.6,6.1c0.1,0.2,0.1,0.5-0.2,0.6l-0.8,0.5c-0.2,0.1-0.5,0.1-0.7-0.2l-3.6-6.1l-3.3,1.9l1.7,2.9c0.1,0.2,0.1,0.5-0.2,0.6l-0.8,0.5
	c-0.2,0.1-0.5,0.1-0.7-0.2l-1.7-2.9l-3.3,1.9l3.6,6.1c0.1,0.2,0.1,0.5-0.2,0.6l-0.8,0.5c-0.2,0.1-0.5,0.1-0.7-0.2L6.9,22l-4.2,2.4
	C1.8,24.9,1.5,26.1,2,27l4.8,8.2c0.5,0.9,1.7,1.2,2.6,0.7l30-17C40.3,18.3,40.7,17.2,40.1,16.3L40.1,16.3z"/>
<path class="st0" d="M15.6,14.5"/>
<path class="st0" d="M40.1,26.8V36c0,1.1-0.9,2-2,2c0,0,0,0,0,0h-9.2c-1.8,0-2.6-2.1-1.4-3.4l3-3l-8.8-8.8l-8.8,8.8l3,3
	c1.2,1.2,0.4,3.4-1.4,3.4H5.1c-1.1,0-2-0.9-2-2c0,0,0,0,0,0v-9.2c0-1.8,2.1-2.6,3.4-1.4l3,3l8.8-8.8l-8.8-8.8l-3,3
	c-1.2,1.2-3.4,0.4-3.4-1.4V3c0-1.1,0.9-2,2-2c0,0,0,0,0,0h9.2c1.8,0,2.6,2.1,1.4,3.4l-3,3l8.8,8.8l8.8-8.8l-3-3
	C26.2,3.2,27.1,1,28.9,1h9.2c1.1,0,2,0.9,2,2c0,0,0,0,0,0v9.2c0,1.8-2.1,2.6-3.4,1.4l-3-3l-8.8,8.8l8.8,8.8l3-3
	C38,24.1,40.1,25,40.1,26.8z"/>
</svg>
