<svg width="69" height="34" viewBox="0 0 69 34" fill="none" xmlns="http://www.w3.org/2000/svg">
<path d="M64.9837 21.7693H4.01638C3.61694 21.7693 3.47354 22.0402 3.69779 22.3713L10.9652 33.0997C11.1894 33.4307 11.6998 33.7017 12.0992 33.7017H56.9006C57.3 33.7017 57.8104 33.4308 58.0346 33.0997L65.3021 22.3713C65.5267 22.0402 65.3833 21.7693 64.9837 21.7693Z" fill="#631701"/>
<path d="M8.51562 29.4849L10.9644 33.0999C11.1887 33.4309 11.6991 33.7019 12.0985 33.7019H56.8999C57.2993 33.7019 57.8097 33.4311 58.0339 33.0999L60.4828 29.4849H8.51562Z" fill="#631701"/>
<g opacity="0.1">
<path opacity="0.1" d="M16.3283 33.0997L9.06092 22.3713C8.83653 22.0402 8.97992 21.7693 9.3795 21.7693H4.01638C3.61694 21.7693 3.47354 22.0402 3.69779 22.3713L10.9652 33.0997C11.1894 33.4307 11.6998 33.7017 12.0992 33.7017H17.4622C17.0629 33.7017 16.5524 33.4308 16.3283 33.0997Z" fill="black"/>
</g>
<path d="M65.8033 18.0861C60.304 7.40347 48.3559 0 34.4993 0C20.6427 0 8.69455 7.40347 3.19531 18.0861H65.8033Z" fill="#E39D15"/>
<g opacity="0.1">
<path opacity="0.1" d="M37.9341 0.154307C36.8042 0.0530981 35.6585 0 34.4993 0C20.6427 0 8.69455 7.40347 3.19531 18.0861H10.0647C15.104 8.29723 25.5584 1.26289 37.9341 0.154307Z" fill="black"/>
</g>
<path d="M68.9999 19.013C68.9999 17.2308 67.5885 15.7725 65.8635 15.7725H3.13626C1.4114 15.7726 0 17.2309 0 19.013V19.8997C0 22.8629 2.30961 25.2648 5.15895 25.2648C6.88624 25.2648 8.41421 24.3811 9.35056 23.0257C10.2869 24.3811 11.8147 25.2648 13.542 25.2648C15.2693 25.2648 16.7972 24.3811 17.7336 23.0257C18.67 24.3811 20.1978 25.2648 21.9251 25.2648C23.6525 25.2648 25.1805 24.3811 26.1169 23.0257C27.0532 24.3811 28.581 25.2648 30.3085 25.2648C32.0357 25.2648 33.5637 24.3811 34.5001 23.0257C35.4364 24.3811 36.9643 25.2648 38.6915 25.2648C40.419 25.2648 41.9467 24.3811 42.8833 23.0257C43.8195 24.3811 45.3473 25.2648 47.0749 25.2648C48.8023 25.2648 50.3301 24.3811 51.2664 23.0257C52.2027 24.3811 53.7306 25.2648 55.458 25.2648C57.1854 25.2648 58.7132 24.3811 59.6496 23.0257C60.5859 24.3811 62.1139 25.2648 63.8411 25.2648C66.6904 25.2648 69 22.8627 69 19.8997L68.9999 19.013Z" fill="#E37115"/>
<g opacity="0.1">
<path opacity="0.1" d="M4.23433 19.8999V19.0133C4.23433 17.231 5.64586 15.7727 7.37072 15.7727H3.13626C1.4114 15.7727 0 17.231 0 19.0131V19.8998C0 22.863 2.30961 25.2649 5.15895 25.2649C5.91418 25.2649 6.63113 25.096 7.27733 24.7925C5.4836 23.9524 4.23433 22.0785 4.23433 19.8999Z" fill="black"/>
</g>
<path d="M34.4996 11.2214C35.5219 11.2214 36.3507 9.68406 36.3507 7.78769C36.3507 5.89132 35.5219 4.354 34.4996 4.354C33.4772 4.354 32.6484 5.89132 32.6484 7.78769C32.6484 9.68406 33.4772 11.2214 34.4996 11.2214Z" fill="#631701"/>
<path d="M27.7146 4.65459C28.4375 5.38501 27.8401 7.17281 26.3803 8.64782C24.9204 10.1228 23.151 10.7264 22.4281 9.99601C21.7052 9.26558 22.3026 7.47765 23.7624 6.00291C25.2223 4.52791 26.9918 3.92429 27.7146 4.65459Z" fill="#631701"/>
<path d="M41.4007 4.65459C40.6778 5.38501 41.2753 7.17281 42.735 8.64782C44.195 10.1228 45.9644 10.7264 46.6873 9.99601C47.4102 9.26558 46.8128 7.47765 45.3529 6.00291C43.8931 4.52791 42.1236 3.92429 41.4007 4.65459Z" fill="#631701"/>
<path d="M48.0846 1.7353C47.5787 2.63283 48.623 4.19733 50.417 5.22949C52.211 6.26166 54.0753 6.37096 54.5813 5.47328C55.0871 4.57548 54.0431 3.01112 52.2488 1.97895C50.455 0.946921 48.5904 0.837624 48.0846 1.7353Z" fill="#631701"/>
<path d="M21.5696 1.73554C22.0755 2.63308 21.0314 4.19757 19.2373 5.22974C17.4434 6.26191 15.5788 6.3712 15.0729 5.47353C14.567 4.57572 15.6111 3.01137 17.4053 1.9792C19.1992 0.947165 21.0639 0.837868 21.5696 1.73554Z" fill="#631701"/>
</svg>
